<?xml version="1.0" encoding="utf-8"?>
<!-- Generator: Adobe Illustrator 19.0.0, SVG Export Plug-In . SVG Version: 6.00 Build 0)  -->
<svg version="1.1" id="图层_1" xmlns="http://www.w3.org/2000/svg" xmlns:xlink="http://www.w3.org/1999/xlink" x="0px" y="0px"
	 width="60.5px" height="70.7px" viewBox="-267 385.2 60.5 70.7" style="enable-background:new -267 385.2 60.5 70.7;"
	 xml:space="preserve">
<style type="text/css">
	.st0{fill:#7A7D8C;}
</style>
<path id="XMLID_118_" class="st0" d="M-208.2,400.3l-13.9-14.4v-0.1h-0.1h-3.8h-1.5l0,0H-255c-2.1,0-3.8,1.7-3.8,3.8v3h4v-2.8h27.4
	h3.6L-212,402v2.1v4.9v25.4v8.8h-3.1v4h3.3c2.1,0,3.8-1.7,3.8-3.8v-9V409v-4.9v-2.4L-208.2,400.3L-208.2,400.3L-208.2,400.3
	L-208.2,400.3z"/>
<polygon id="XMLID_105_" class="st0" points="-229.3,392.9 -229.3,407.5 -215.2,407.5 "/>
<path id="XMLID_104_" class="st0" d="M-229.3,392.9"/>
<g id="XMLID_2_">
	<polygon id="XMLID_85_" class="st0" points="-254.3,424.5 -251.4,424.5 -252.8,419.7 	"/>
	<path id="XMLID_63_" class="st0" d="M-230.6,408.8v-15.9h-31.5c-2.1,0-3.8,1.7-3.8,3.8v53.8c0,2.1,1.7,3.8,3.8,3.8h8.8h25.3h9
		c2.1,0,3.8-1.7,3.8-3.8v-9v-25.3v-7.4H-230.6z M-249.7,430.3l-1-3.1h-4.4l-0.9,3.1h-4.1l5.2-14.2h4.3l5.3,14.2H-249.7z
		 M-233.4,430.3h-10.9v-14.2h4.1v11.2h6.8C-233.4,427.3-233.4,430.3-233.4,430.3z M-221,430.3h-10.9v-14.2h4.1v11.2h6.8V430.3z"/>
</g>
</svg>
